<?xml version="1.0" encoding="utf-8"?>
<svg width="300px" height="300px" viewBox="0 0 15 22"
    xmlns="http://www.w3.org/2000/svg" version="1.1" >
    <g>
        <g transform="scale(1.4) translate(-2,-3)">
            <!-- Cloud -->
            <path d="m7 3.75c-1.79493 0-3.25 1.45507-3.25 3.25.00152.254757.032983.508452.09375.755859h-.00195c-1.17822.08305-2.09165 1.063-2.0918 2.24414 0 1.24264 1.00736 2.25 2.25 2.25h7.5c1.51878 0 2.75-1.23122 2.75-2.75s-1.2312-2.75-2.75-2.75c-.4352-.00022-.8643.10286-1.252.30078.0008-.01692.0015-.03385.0020-.05078 0-1.79493-1.45507-3.25-3.25-3.25z" fill="none" stroke="#000000" stroke-linecap="round" stroke-linejoin="round" stroke-width="1.5" />
        </g>
<g transform="scale(0.2) translate(20, 70)" >
	<path d="M25.311,18.136l2.039-2.041l-2.492-2.492l-2.039,2.041c-1.355-0.98-2.941-1.654-4.664-1.934v-2.882H14.63v2.883
		c-1.722,0.278-3.308,0.953-4.662,1.934l-2.041-2.041l-2.492,2.492l2.041,2.041c-0.98,1.354-1.656,2.941-1.937,4.662H2.658v3.523
		H5.54c0.279,1.723,0.955,3.309,1.937,4.664l-2.041,2.039l2.492,2.492l2.041-2.039c1.354,0.979,2.94,1.653,4.662,1.936v2.883h3.524
		v-2.883c1.723-0.279,3.309-0.955,4.664-1.936l2.039,2.039l2.492-2.492l-2.039-2.039c0.98-1.355,1.654-2.941,1.934-4.664h2.885
		v-3.524h-2.885C26.967,21.078,26.293,19.492,25.311,18.136z M16.393,30.869c-3.479,0-6.309-2.83-6.309-6.307
		c0-3.479,2.83-6.308,6.309-6.308c3.479,0,6.307,2.828,6.307,6.308C22.699,28.039,19.871,30.869,16.393,30.869z M35.639,8.113v-2.35
		h-0.965c-0.16-0.809-0.474-1.561-0.918-2.221l0.682-0.683l-1.664-1.66l-0.68,0.683c-0.658-0.445-1.41-0.76-2.217-0.918V0h-2.351
		v0.965c-0.81,0.158-1.562,0.473-2.219,0.918L24.625,1.2l-1.662,1.66l0.683,0.683c-0.445,0.66-0.761,1.412-0.918,2.221h-0.966v2.35
		h0.966c0.157,0.807,0.473,1.559,0.918,2.217l-0.681,0.68l1.658,1.664l0.685-0.682c0.657,0.443,1.409,0.758,2.219,0.916v0.967h2.351
		v-0.968c0.807-0.158,1.559-0.473,2.217-0.916l0.682,0.68l1.662-1.66l-0.682-0.682c0.444-0.658,0.758-1.41,0.918-2.217H35.639
		L35.639,8.113z M28.701,10.677c-2.062,0-3.74-1.678-3.74-3.74c0-2.064,1.679-3.742,3.74-3.742c2.064,0,3.742,1.678,3.742,3.742
		C32.443,9,30.766,10.677,28.701,10.677z"/>
</g>
    </g>
</svg>
